<?xml version="1.0" encoding="UTF-8"?><svg id="Calque_2" xmlns="http://www.w3.org/2000/svg" viewBox="0 0 30.21 32.94"><defs><style>.cls-1{fill:#9da5d4;}.cls-2{fill:#1b407c;}.cls-3{fill:#5b6eb3;}.cls-4{fill:#586fb4;}</style></defs><g id="zone"><path class="cls-3" d="m12,18.07l.07,4.85,2.72-.04c1.3-.02,2.34-1.09,2.32-2.39l-.06-4.15-3.42.05c-.91.01-1.64.76-1.62,1.67"/><path class="cls-4" d="m30.14,27.14c0-.65-.54-1.17-1.19-1.16l-4.28.06c-2.16-.15-2.78-1.1-2.92-2.65l-.08-5.47c-.01-.91-.76-1.64-1.67-1.62l-2.77.04h-.16s.06,4.15.06,4.15c.02,1.3-1.02,2.37-2.32,2.39l-2.72.04.02,1.51c.01.91.76,1.64,1.67,1.62l5.14-.08c.49.01.93.04,1.31.09,2.81.33,2.88,1.43,3.03,2.4l.05,3.33c.01.65.55,1.17,1.2,1.16l4.54-.07c.65,0,1.17-.54,1.16-1.19l-.07-4.54"/><path class="cls-4" d="m23.22,1.16c-.01-.65-.54-1.17-1.2-1.16l-4.54.07c-.65,0-1.17.54-1.16,1.19l.07,4.4h-.03c.18,2.43-.82,3.13-2.57,3.44l-6.85.1.03,2.05c0,.65-.51,1.18-1.16,1.19l-2.61.04.03,4.9h0s.08,3.31.08,3.31c.02,1.3,1.09,2.34,2.39,2.32l6.37-.1-.07-4.85c-.01-.91.71-1.66,1.62-1.67l3.42-.05v-.17s-.07-4.64-.07-4.64h.01c-.38-3.97.8-4.3,1.85-4.59l3.29-.05c.65-.01,1.17-.55,1.16-1.19l-.07-4.54"/><path class="cls-2" d="m17.05,16.34l-3.42.05c-.9.01-1.62.75-1.62,1.65,0,0,0,.01,0,.02l.07,4.85,2.72-.04c1.29-.02,2.32-1.07,2.32-2.36,0-.01,0-.02,0-.03l-.06-4.15"/><path class="cls-4" d="m5.5,9.23l1.43-.02-.04-2.49c-.01-.65-.54-1.17-1.19-1.16l-4.54.07C.51,5.63-.01,6.17,0,6.82l.07,4.54c0,.65.54,1.17,1.19,1.16l1.93-.03v-.88c-.03-1.3,1-2.37,2.3-2.39"/><path class="cls-1" d="m6.93,9.2h0l-1.43.02c-1.29.02-2.32,1.07-2.32,2.36,0,.01,0,.02,0,.03v.88s2.62-.04,2.62-.04c.64,0,1.16-.54,1.16-1.18,0,0,0-.01,0-.02l-.03-2.05"/></g></svg>