<?xml version="1.0" encoding="UTF-8" standalone="no"?>
<svg
  xmlns:dc="http://purl.org/dc/elements/1.1/"
  xmlns:cc="http://creativecommons.org/ns#"
  xmlns:rdf="http://www.w3.org/1999/02/22-rdf-syntax-ns#"
  xmlns:svg="http://www.w3.org/2000/svg"
  xmlns="http://www.w3.org/2000/svg"
  viewBox="0 0 971.76001 258.56"
  height="258.56"
  width="971.76001"
  xml:space="preserve"
  id="svg2"
  version="1.1"
>
  <metadata
    id="metadata8"
  ><rdf:RDF><cc:Work
        rdf:about=""
      ><dc:format>image/svg+xml</dc:format><dc:type
          rdf:resource="http://purl.org/dc/dcmitype/StillImage"
        /></cc:Work></rdf:RDF></metadata><defs
    id="defs6"
  /><g
    transform="matrix(1.3333333,0,0,-1.3333333,0,258.56)"
    id="g10"
  ><g
      transform="scale(0.1)"
      id="g12"
    ><path
        id="path14"
        style="fill: #231f20; fill-opacity: 1; fill-rule: nonzero; stroke: none"
        d="m 424.281,337.891 c 1.133,5.839 1.766,11.847 1.766,18.007 0,41.852 -27.336,77.282 -65.117,89.5 l 42.355,618.632 c 1.957,0.35 3.887,0.77 5.801,1.23 L 869.074,191.48 c -6.73,-6.031 -12.57,-12.992 -17.344,-20.71 -0.039,0.011 -0.078,0.011 -0.117,0.011 -159.531,15.199 -306.269,75.078 -427.293,167.078 -0.011,0.012 -0.023,0.02 -0.039,0.032 z M 223.633,1459.96 c 3.66,-0.44 7.363,-0.72 11.14,-0.72 3.848,0 7.622,0.3 11.352,0.75 l 86.727,-226.38 c -24.262,-17.02 -40.164,-45.15 -40.164,-77.04 0,-41.84 27.339,-77.26 65.113,-89.48 L 315.449,448.449 c -3.066,-0.539 -6.07,-1.23 -9.027,-2.058 -0.012,0.007 -0.024,0.019 -0.035,0.039 C 172.68,595.328 91.1953,792.129 91.1953,1007.54 c 0,166.38 48.6757,321.69 132.4377,452.42 z m 708.094,388.11 c 168.673,0 325.923,-49.94 457.573,-135.88 0.01,0 0.01,-0.01 0.02,-0.01 -0.11,-0.96 -0.21,-1.92 -0.29,-2.89 l -370.75,-59.16 c -14.35,33.63 -47.698,57.2 -86.561,57.2 -51.965,0 -94.086,-42.13 -94.086,-94.09 0,-14.76 3.492,-28.67 9.551,-41.1 L 442.023,1232.62 c -15.523,11.3 -34.578,18.04 -55.25,18.04 -3.847,0 -7.621,-0.3 -11.351,-0.75 l -86.731,226.38 c 24.262,17.01 40.168,45.15 40.168,77.03 0,11.66 -2.218,22.78 -6.093,33.08 0.023,0.03 0.05,0.06 0.074,0.08 153.25,161.02 369.586,261.59 608.887,261.59 z M 1358.45,283.691 c -103.43,-61.371 -221.13,-101.019 -346.73,-112.8 -0.03,0 -0.06,0 -0.08,0 -16.597,26.738 -46.136,44.609 -79.921,44.609 -7.703,0 -15.153,-1.031 -22.317,-2.77 l -459.984,873.79 c 19.254,17.22 31.441,42.18 31.441,70.05 0,14.77 -3.492,28.68 -9.546,41.11 l 405.156,339.52 c 15.523,-11.3 34.578,-18.04 55.25,-18.04 49.215,0 89.541,37.8 93.671,85.95 l 370.75,59.15 c 14.35,-33.62 47.7,-57.19 86.56,-57.19 11.12,0 21.74,2.03 31.64,5.57 0.03,-0.04 0.06,-0.07 0.1,-0.1 25.28,-21.55 111.45,-122.4 111.45,-122.4 l 102.6,-0.11 c -42.74,70.4 -94.51,134.62 -153.82,190.96 -0.03,0.03 -0.06,0.05 -0.08,0.07 1.41,6.48 2.2,13.19 2.2,20.09 0,51.97 -42.12,94.09 -94.09,94.09 -14.37,0 -27.94,-3.32 -40.13,-9.08 -0.04,0.02 -0.08,0.05 -0.13,0.09 -146.73,96.68 -322.27,152.9 -510.713,152.9 -267.075,0 -508.321,-112.91 -678.368,-293.58 -0.004,-0.01 -0.004,-0.01 -0.004,-0.01 -6.011,1.2 -12.218,1.85 -18.582,1.85 -51.964,0 -94.085,-42.12 -94.085,-94.09 0,-14.3 3.285,-27.81 9,-39.95 -0.032,-0.05 -0.063,-0.1 -0.094,-0.14 C 54.9688,1367.41 0,1193.82 0,1007.54 0,767.121 91.5195,547.73 241.656,382.141 c -2.418,-8.34 -3.781,-17.121 -3.781,-26.243 0,-51.957 42.125,-94.078 94.086,-94.078 11.84,0 23.117,2.282 33.555,6.27 0.019,-0.02 0.043,-0.039 0.066,-0.059 C 501.574,163.578 667.168,95.8086 847.387,79.6992 c 0.031,0 0.062,0 0.093,-0.0078 15.387,-31 47.278,-52.3633 84.239,-52.3633 36.914,0 68.771,21.3125 84.181,52.25 0.02,0.0117 0.03,0.0117 0.05,0.0117 189.02,17.0196 361.93,90.7382 501.58,203.9882 h -148.11 c -3.66,0 -7.32,0 -10.97,0.113"
      /><path
        id="path16"
        style="fill: #231f20; fill-opacity: 1; fill-rule: nonzero; stroke: none"
        d="m 5966.01,465.281 h 1231.02 c 50.29,0 91.2,40.91 91.2,91.199 0,50.399 -40.91,91.192 -91.2,91.192 H 5966.01 c -191.08,0 -346.61,155.43 -346.61,346.613 v 299.865 c 0,50.29 -40.8,91.2 -91.2,91.2 -50.28,0 -91.08,-40.91 -91.08,-91.2 V 994.285 c 0,-291.644 237.25,-529.004 528.89,-529.004"
      /><path
        id="path18"
        style="fill: #231f20; fill-opacity: 1; fill-rule: nonzero; stroke: none"
        d="M 6216.41,1202.94 H 7197 c 50.35,0 91.17,40.83 91.17,91.18 0,50.35 -40.82,91.18 -91.17,91.18 h -980.59 c -50.35,0 -91.18,-40.83 -91.18,-91.18 0,-50.35 40.83,-91.18 91.18,-91.18"
      /><path
        id="path20"
        style="fill: #231f20; fill-opacity: 1; fill-rule: nonzero; stroke: none"
        d="m 6216.41,834.129 h 634.52 c 50.35,0 91.18,40.832 91.18,91.18 0,50.355 -40.83,91.181 -91.18,91.181 h -634.52 c -50.35,0 -91.18,-40.826 -91.18,-91.181 0,-50.348 40.83,-91.18 91.18,-91.18"
      /><path
        id="path22"
        style="fill: #231f20; fill-opacity: 1; fill-rule: nonzero; stroke: none"
        d="m 2363.33,919.199 c 0,-148.558 -119.99,-269.699 -268.1,-271.41 -1.14,-0.117 -2.29,-0.117 -3.43,-0.117 h -403.07 c -149.7,0 -271.53,121.816 -271.53,271.527 v 12.11 c 0,149.831 121.83,271.651 271.53,271.651 h 403.07 c 1.14,0 2.29,0 3.43,-0.11 148.11,-1.72 268.1,-122.85 268.1,-271.541 z M 2091.8,1385.35 h -403.07 c -148.45,0 -280.44,-71.65 -363.41,-182.16 -56.79,-75.77 -90.51,-169.94 -90.51,-271.881 v -12.11 c 0,-101.711 47.57,-221.379 90.4,-271.527 42.83,-50.141 146.31,-160.922 361.04,-182.391 209.24,-3.152 405.55,0 405.55,0 250.27,0 453.92,203.649 453.92,453.918 v 12.11 c 0,250.391 -203.65,454.041 -453.92,454.041"
      /><path
        id="path24"
        style="fill: #231f20; fill-opacity: 1; fill-rule: nonzero; stroke: none"
        d="M 1520.29,407.391 C 1447.53,336.551 1361.24,277.309 1263.51,235.27 l 26.23,-87.711 c 129.77,54.019 242.07,134.211 332.35,232.222 -37.71,6.828 -71.53,16.36 -101.8,27.61"
      /><path
        id="path26"
        style="fill: #231f20; fill-opacity: 1; fill-rule: nonzero; stroke: none"
        d="m 4140.16,931.309 c 0,149.831 121.82,271.651 271.64,271.651 h 402.95 c 149.71,0 271.65,-121.82 271.65,-271.651 v -12.11 c 0,-149.711 -121.94,-271.527 -271.65,-271.527 H 4411.8 c -149.82,0 -271.64,121.816 -271.64,271.527 z M 4411.8,465.281 h 402.95 c 250.27,0 453.92,203.649 453.92,453.918 v 12.11 c 0,250.391 -203.65,454.041 -453.92,454.041 H 4411.8 c -250.39,0 -453.92,-203.65 -453.92,-454.041 v -12.11 c 0,-250.269 203.53,-453.918 453.92,-453.918"
      /><path
        id="path28"
        style="fill: #231f20; fill-opacity: 1; fill-rule: nonzero; stroke: none"
        d="m 3547.04,951.313 h -528.09 c -76.34,0 -138.5,62.167 -138.5,138.507 v 113.14 h 666.59 c 69.37,0 125.82,-56.46 125.82,-125.82 0,-69.37 -56.45,-125.827 -125.82,-125.827 z m 0,434.037 h -712.88 c -74.96,0 -136.1,-61.14 -136.1,-136.22 V 556.48 c 0,-50.289 40.79,-91.199 91.19,-91.199 50.4,0 91.2,40.91 91.2,91.199 v 243.872 c 41.94,-20.114 88.91,-31.43 138.5,-31.43 h 528.09 c 169.94,0 308.22,138.277 308.22,308.218 0,169.93 -138.28,308.21 -308.22,308.21"
      /><path
        id="path30"
        style="fill: #231f20; fill-opacity: 1; fill-rule: nonzero; stroke: none"
        d="M 839.004,1285.75 V 985.879 c 0,-50.277 40.797,-91.199 91.195,-91.199 50.399,0 91.191,40.922 91.191,91.199 v 299.871 c 0,132.32 -182.386,130.85 -182.386,0"
      /><path
        id="path32"
        style="fill: #231f20; fill-opacity: 1; fill-rule: nonzero; stroke: none"
        d="M 839.004,986.234 V 686.371 c 0,-50.293 40.797,-91.199 91.195,-91.199 50.399,0 91.191,40.906 91.191,91.199 v 299.863 c 0,132.316 -182.386,130.856 -182.386,0"
      /><path
        id="path34"
        style="fill: #231f20; fill-opacity: 1; fill-rule: nonzero; stroke: none"
        d="M 839.004,854.5 V 554.629 c 0,-50.277 40.797,-91.188 91.195,-91.188 50.399,0 91.191,40.911 91.191,91.188 V 854.5 c 0,132.316 -182.386,130.852 -182.386,0"
      /></g></g>
</svg>
